HIERARCHY
ROOT Scene_Root
{
	OFFSET 0 0 0
	CHANNELS 6 Xposition Yposition Zposition Zrotation Xrotation Yrotation
	JOINT Main__Hips_
	{
		OFFSET 0 1.05 0
		CHANNELS 3 Zrotation Xrotation Yrotation
		JOINT LeftUpperLeg
		{
			OFFSET 0.1 -0.05 0
			CHANNELS 3 Zrotation Xrotation Yrotation
			JOINT LeftLowerLeg
			{
				OFFSET 0.013 -0.419986 0.028
				CHANNELS 3 Zrotation Xrotation Yrotation
				JOINT LeftFoot
				{
					OFFSET -0.013 -0.45 -0.028
					CHANNELS 3 Zrotation Xrotation Yrotation
					JOINT LeftToes
					{
						OFFSET 0 -0.095 0.09
						CHANNELS 3 Zrotation Xrotation Yrotation
						End Site
						{
							OFFSET 0 0 0
						}
					}
				}
			}
		}
		JOINT RightUpperLeg
		{
			OFFSET -0.1 -0.05 0
			CHANNELS 3 Zrotation Xrotation Yrotation
			JOINT RightLowerLeg
			{
				OFFSET -0.023 -0.419986 0.028
				CHANNELS 3 Zrotation Xrotation Yrotation
				JOINT RightFoot
				{
					OFFSET 0.013 -0.45 -0.028
					CHANNELS 3 Zrotation Xrotation Yrotation
					JOINT RightToes
					{
						OFFSET 0 -0.095 0.09
						CHANNELS 3 Zrotation Xrotation Yrotation
						End Site
						{
							OFFSET 0 0 0
						}
					}
				}
			}
		}
		JOINT LowerBack
		{
			OFFSET 0 0.09 0
			CHANNELS 3 Zrotation Xrotation Yrotation
			JOINT Back
			{
				OFFSET 0 0.14 0
				CHANNELS 3 Zrotation Xrotation Yrotation
				JOINT Chest
				{
					OFFSET 0 0.18 0
					CHANNELS 3 Zrotation Xrotation Yrotation
					JOINT Neck
					{
						OFFSET 0 0.21 -0.027
						CHANNELS 3 Zrotation Xrotation Yrotation
						End Site
						{
							OFFSET 0 0 0
						}
					}
					JOINT LeftUpperArm
					{
						OFFSET 0.195 0.11 -0.045
						CHANNELS 3 Zrotation Xrotation Yrotation
						JOINT LeftLowerArm
						{
							OFFSET 0.34 -0.005 0.015
							CHANNELS 3 Zrotation Xrotation Yrotation
							JOINT LeftHand
							{
								OFFSET 0.225 -0.005 -0.01
								CHANNELS 3 Zrotation Xrotation Yrotation
								JOINT LTumb1
								{
									OFFSET 0.052905 0.052523 -0.006921
									CHANNELS 3 Zrotation Xrotation Yrotation
									JOINT LTumb2
									{
										OFFSET 0.028633 0.027375 0.00264
										CHANNELS 3 Zrotation Xrotation Yrotation
										End Site
										{
											OFFSET 0 0 0
										}
									}
								}
								JOINT LForeFinger1
								{
									OFFSET 0.114668 0.0362819 -0.003648
									CHANNELS 3 Zrotation Xrotation Yrotation
									JOINT LForeFinger2
									{
										OFFSET 0.029629 0.00689304 0.003865
										CHANNELS 3 Zrotation Xrotation Yrotation
										JOINT LForeFinger3
										{
											OFFSET 0.024014 0.00504696 0.00243
											CHANNELS 3 Zrotation Xrotation Yrotation
											End Site
											{
												OFFSET 0 0 0
											}
										}
									}
								}
								JOINT LMiddleFinger1
								{
									OFFSET 0.119962 0.00615799 -0.005816
									CHANNELS 3 Zrotation Xrotation Yrotation
									JOINT LMiddleFinger2
									{
										OFFSET 0.032236 0.00534105 0.003127
										CHANNELS 3 Zrotation Xrotation Yrotation
										JOINT LMiddleFinger3
										{
											OFFSET 0.028348 0.00342798 0.000117
											CHANNELS 3 Zrotation Xrotation Yrotation
											End Site
											{
												OFFSET 0 0 0
											}
										}
									}
								}
								JOINT LRingFinger1
								{
									OFFSET 0.120105 -0.023402 -0.005103
									CHANNELS 3 Zrotation Xrotation Yrotation
									JOINT LRingFinger2
									{
										OFFSET 0.028485 -0.00253105 0.003225
										CHANNELS 3 Zrotation Xrotation Yrotation
										JOINT LRingFinger3
										{
											OFFSET 0.025048 -0.00224495 0.000980001
											CHANNELS 3 Zrotation Xrotation Yrotation
											End Site
											{
												OFFSET 0 0 0
											}
										}
									}
								}
								JOINT LLittleFinger1
								{
									OFFSET 0.108843 -0.0534641 -0.007054
									CHANNELS 3 Zrotation Xrotation Yrotation
									JOINT LLittleFinger2
									{
										OFFSET 0.015333 -0.00509405 0.006821
										CHANNELS 3 Zrotation Xrotation Yrotation
										JOINT LLittleFinger3
										{
											OFFSET 0.022252 -0.00760102 0.003227
											CHANNELS 3 Zrotation Xrotation Yrotation
											End Site
											{
												OFFSET 0 0 0
											}
										}
									}
								}
							}
						}
					}
					JOINT RightUpperArm
					{
						OFFSET -0.195 0.11 -0.045
						CHANNELS 3 Zrotation Xrotation Yrotation
						JOINT RightLowerArm
						{
							OFFSET -0.34 -0.005 0.015
							CHANNELS 3 Zrotation Xrotation Yrotation
							JOINT RightHand
							{
								OFFSET -0.225 -0.005 -0.01
								CHANNELS 3 Zrotation Xrotation Yrotation
								JOINT RTumb1
								{
									OFFSET -0.052906 0.052523 -0.006921
									CHANNELS 3 Zrotation Xrotation Yrotation
									JOINT RTumb2
									{
										OFFSET -0.028633 0.027375 0.00264
										CHANNELS 3 Zrotation Xrotation Yrotation
										End Site
										{
											OFFSET 0 0 0
										}
									}
								}
								JOINT RForeFinger1
								{
									OFFSET -0.114668 0.0362819 -0.003648
									CHANNELS 3 Zrotation Xrotation Yrotation
									JOINT RForeFinger2
									{
										OFFSET -0.029629 0.00689304 0.003865
										CHANNELS 3 Zrotation Xrotation Yrotation
										JOINT RForeFinger3
										{
											OFFSET -0.024014 0.00504696 0.00243
											CHANNELS 3 Zrotation Xrotation Yrotation
											End Site
											{
												OFFSET 0 0 0
											}
										}
									}
								}
								JOINT RMiddleFinger1
								{
									OFFSET -0.119962 0.00615704 -0.005816
									CHANNELS 3 Zrotation Xrotation Yrotation
									JOINT RMiddleFinger2
									{
										OFFSET -0.032236 0.00534105 0.003127
										CHANNELS 3 Zrotation Xrotation Yrotation
										JOINT RMiddleFinger3
										{
											OFFSET -0.028348 0.00342798 0.000117
											CHANNELS 3 Zrotation Xrotation Yrotation
											End Site
											{
												OFFSET 0 0 0
											}
										}
									}
								}
								JOINT RRingFinger1
								{
									OFFSET -0.120105 -0.023402 -0.005103
									CHANNELS 3 Zrotation Xrotation Yrotation
									JOINT RRingFinger2
									{
										OFFSET -0.028485 -0.00253105 0.003225
										CHANNELS 3 Zrotation Xrotation Yrotation
										JOINT RRingFinger3
										{
											OFFSET -0.025048 -0.00224602 0.000980001
											CHANNELS 3 Zrotation Xrotation Yrotation
											End Site
											{
												OFFSET 0 0 0
											}
										}
									}
								}
								JOINT RLittleFinger1
								{
									OFFSET -0.108843 -0.0534641 -0.007054
									CHANNELS 3 Zrotation Xrotation Yrotation
									JOINT RLittleFinger2
									{
										OFFSET -0.015333 -0.00509405 0.006821
										CHANNELS 3 Zrotation Xrotation Yrotation
										JOINT RLittleFinger3
										{
											OFFSET -0.022252 -0.00760102 0.003227
											CHANNELS 3 Zrotation Xrotation Yrotation
											End Site
											{
												OFFSET 0 0 0
											}
										}
									}
								}
							}
						}
					}
				}
			}
		}
	}
}
MOTION
Frames: 4
Frame Time: 0.200000
0 0 0 0 0 0 0 0 0 0 0 0 0 0 0 0 0 0 0 0 0 0 0 0 0 0 0 0 0 0 0 0 0 0 0 0 0 0 0 0 0 0 0 0 0 -79.9626 1.98852e-005 -4.92382 -9.99999 0 0 0 90 0 -30 0 0 0 0 0 -15 0 0 0 0 0 0.3342 2.57591 -14.7822 -9.92441 0.86717 -9.96269 0.169554 1.29259 -14.9455 0.900829 2.86547 -34.8974 -0.0755824 -0.867147 -9.96269 -0.0755824 -0.867147 -9.96269 -0.0189303 -0.435223 -4.98106 14.9299 -1.70818 -4.69984 -0.0701033 -1.70818 -4.69982 0 0 0 74.9453 2.63074e-005 4.82922 15 0 0 0 90 0 30 0 0 0 0 0 15 0 0 0 0 0 -0.0372883 0.867147 4.92444 9.98108 0.43523 4.98106 0 0 0 -0.0189303 0.435223 4.98106 0 0 0 0.0755824 -0.867147 9.96269 0.0755824 -0.867147 9.96269 -14.7197 -3.40485 9.40804 0.0701042 -1.70818 4.69988 0.629942 -5.07853 14.1327 
0 0 0 0 0 0 0 0 0 0 0.064102 0 0 -0.0256419 0 0 0 0 0 0 0 0 0.153847 0 0 -0.179487 0 0 0 0 0 0 0 0 0.147059 0 0 4.99999 0 0 2.5 0 0 6.24999 0 -80.021 1.08725 1.23128 -9.73669 10.792 -32.6273 -175.52 88.6868 175.438 -28.4211 0 0 0 0 0 -14.2105 0 0 0 0 0 0.300092 2.44313 -14.0032 -9.40689 0.77869 -9.44314 0.152261 1.22599 -14.1586 0.810998 2.73233 -33.058 -0.0678526 -0.821933 -9.43826 -0.0678526 -0.821933 -9.43826 -0.0169911 -0.41237 -4.71889 14.1477 -1.58821 -4.46468 -0.0629194 -1.61846 -4.45233 0 0 0 75 1.29719 -1.53929e-005 13.9353 7.74355 34.4682 -54.3614 89.7118 56.8447 30 0 0 0 0 0 15 0 0 0 0 0 -0.0372883 0.867147 4.92444 9.98108 0.43523 4.98106 0 0 0 -0.0189303 0.435223 4.98106 0 0 0 0.0755824 -0.867147 9.96269 0.0755824 -0.867147 9.96269 -14.7197 -3.40485 9.40804 0.0701042 -1.70818 4.69988 0.629942 -5.07853 14.1327 
0 0 0 0 0 0 0 0 0 0 0.128204 0 0 -0.0512838 0 0 0 0 0 0 0 0 0.307694 0 0 -0.358973 0 0 0 0 0 0 0 0 0.294118 0 0 9.99999 0 0 4.99999 0 0 12.5 0 -80.1959 2.16193 7.39077 -3.3497 19.6605 -66.9138 -175.562 87.3736 175.397 -26.8421 0 0 0 0 0 -13.421 0 0 0 0 0 0.267797 2.30989 -13.2244 -8.8886 0.69491 -8.92281 0.135885 1.15916 -13.3718 0.725501 2.59639 -31.2189 -0.0605371 -0.77665 -8.91385 -0.0605371 -0.77665 -8.91385 -0.0151565 -0.389508 -4.45672 13.365 -1.47146 -4.22791 -0.0561236 -1.52872 -4.20485 0 0 0 75.1639 2.58513 -4.83418 8.53996 13.4876 69.8602 -53.1204 89.4237 58.0871 30 0 0 0 0 0 15 0 0 0 0 0 -0.0372883 0.867147 4.92444 9.98108 0.43523 4.98106 0 0 0 -0.0189303 0.435223 4.98106 0 0 0 0.0755824 -0.867147 9.96269 0.0755824 -0.867147 9.96269 -14.7197 -3.40485 9.40804 0.0701042 -1.70818 4.69988 0.629942 -5.07853 14.1327 
0 0 0 0 0 0 0 0 0 0 0.192306 0 0 -0.0769257 0 0 0 0 0 0 0 0 0.461541 0 0 -0.53846 0 0 0 0 0 0 0 0 0.441178 0 0 15 0 0 7.49999 0 0 18.75 0 -80.4853 3.21165 13.5589 7.57308 23.311 -103.529 -175.603 86.0604 175.356 -25.2632 0 0 0 0 0 -12.6316 0 0 0 0 0 0.23732 2.17623 -12.4457 -8.36958 0.615843 -8.40177 0.120429 1.09211 -12.585 0.644424 2.45778 -29.3802 -0.0536364 -0.731302 -8.38944 -0.0536364 -0.731302 -8.38944 -0.0134266 -0.366638 -4.19456 12.5819 -1.35795 -3.98959 -0.0497159 -1.43894 -3.9574 0 0 0 75.4361 3.85468 -9.67809 0.634028 15.0328 106.207 -51.8794 89.136 59.3295 30 0 0 0 0 0 15 0 0 0 0 0 -0.0372883 0.867147 4.92444 9.98108 0.43523 4.98106 0 0 0 -0.0189303 0.435223 4.98106 0 0 0 0.0755824 -0.867147 9.96269 0.0755824 -0.867147 9.96269 -14.7197 -3.40485 9.40804 0.0701042 -1.70818 4.69988 0.629942 -5.07853 14.1327 
